<?xml version="1.0" encoding="utf-8"?>
<!-- Generator: Adobe Illustrator 18.0.0, SVG Export Plug-In . SVG Version: 6.00 Build 0)  -->
<!DOCTYPE svg PUBLIC "-//W3C//DTD SVG 1.1//EN" "http://www.w3.org/Graphics/SVG/1.1/DTD/svg11.dtd">
<svg version="1.1" id="Layer_1" xmlns="http://www.w3.org/2000/svg" xmlns:xlink="http://www.w3.org/1999/xlink" x="0px" y="0px"
	 viewBox="0 0 600 150" enable-background="new 0 0 600 150" xml:space="preserve">
<g>
	<path fill="#CCCCCC" d="M135.2,140.5H27.6c-6.6,0-12-5.4-12-12V21.9c0-6.6,5.4-12,12-12h107.6c6.6,0,12,5.4,12,12v106.6
		C147.2,135.1,141.8,140.5,135.2,140.5z"/>
	<path fill="#FFFFFF" stroke="#808080" stroke-width="2" stroke-miterlimit="10" d="M128.9,132h-95c-6.6,0-12-5.4-12-12V28.8
		c0-6.6,5.4-12,12-12h95c6.6,0,12,5.4,12,12V120C140.9,126.6,135.5,132,128.9,132z"/>
	<g>
		<ellipse id="row1_x5F_1" fill="#FFFF00" cx="39.4" cy="32.9" rx="9.2" ry="9"/>
		<g id="row1_x5F_2">
			<ellipse fill="#ED1E79" cx="61" cy="32.9" rx="9.2" ry="9"/>
		</g>
		<g id="row1_x5F_3">
			<ellipse fill="#39B54A" cx="83.1" cy="33.1" rx="9.2" ry="9"/>
		</g>
		<g id="row1_x5F_4">
			<ellipse fill="#0000FF" cx="104.5" cy="33.1" rx="9.2" ry="9"/>
		</g>
		<g id="row1_x5F_5">
			<ellipse fill="#FF1D25" cx="126.2" cy="32.9" rx="9.2" ry="9"/>
		</g>
		<g id="row1_x5F_1_7_">
			<ellipse fill="#1B1464" cx="39.4" cy="54" rx="9.2" ry="9"/>
		</g>
		<g id="row1_x5F_2_2_">
			<ellipse fill="#FF931E" cx="61" cy="53.9" rx="9.2" ry="9"/>
		</g>
		<g id="row2_x5F_3_2_">
			<ellipse fill="#FF00FF" cx="83.1" cy="53.9" rx="9.2" ry="9"/>
		</g>
		<g id="row2_x5F_4_1_">
			<ellipse fill="#8C6239" cx="104.5" cy="53.9" rx="9.2" ry="9"/>
		</g>
		<g id="row2_x5F_5_2_">
			<ellipse fill="#00FF00" cx="126.2" cy="53.9" rx="9.2" ry="9"/>
		</g>
		<g id="row3_x5F_1">
			<ellipse fill="#FF0000" cx="39.4" cy="74.9" rx="9.2" ry="9"/>
		</g>
		<g id="row3_x5F_2">
			<ellipse fill="#29ABE2" cx="61" cy="74.8" rx="9.2" ry="9"/>
		</g>
		<g id="row3_x5F_3">
			<ellipse fill="#FFFF00" cx="83.1" cy="74.8" rx="9.2" ry="9"/>
		</g>
		<g id="row3_x5F_4">
			<ellipse fill="#2E3192" cx="104.5" cy="74.8" rx="9.2" ry="9"/>
		</g>
		<g id="row3_x5F_5">
			<ellipse fill="#F15A24" cx="126.2" cy="74.8" rx="9.2" ry="9"/>
		</g>
		<g id="row4_x5F_1">
			<ellipse fill="#006837" cx="39.4" cy="95.5" rx="9.2" ry="9"/>
		</g>
		<g id="row4_x5F_2_2_">
			<ellipse fill="#9E005D" cx="61" cy="95.3" rx="9.2" ry="9"/>
		</g>
		<g id="row4_x5F_3_2_">
			<ellipse fill="#FF7BAC" cx="83.1" cy="95.5" rx="9.2" ry="9"/>
		</g>
		<g id="row4_x5F_4_1_">
			<ellipse fill="#8CC63F" cx="104.5" cy="95.5" rx="9.2" ry="9"/>
		</g>
		<g id="row4_x5F_5_2_">
			<ellipse fill="#C7B299" cx="126.2" cy="95.5" rx="9.2" ry="9"/>
		</g>
		<g id="row5_x5F_1">
			<ellipse fill="#ED1E79" cx="39.4" cy="116.8" rx="9.2" ry="9"/>
		</g>
		<g id="row5_x5F_2">
			<ellipse fill="#FCEE21" cx="61" cy="117" rx="9.2" ry="9"/>
		</g>
		<g id="row5_x5F_3">
			<ellipse fill="#999999" cx="83.1" cy="116.8" rx="9.2" ry="9"/>
		</g>
		<g id="row5_x5F_4">
			<ellipse fill="#FF0000" cx="104.5" cy="116.8" rx="9.2" ry="9"/>
		</g>
		<g id="row5_x5F_5">
			<ellipse fill="#662D91" cx="126.2" cy="116.8" rx="9.2" ry="9"/>
		</g>
		<g id="row5_x5F_5_1_">
			<ellipse fill="#662D91" cx="126.2" cy="116.8" rx="9.2" ry="9"/>
		</g>
		<g id="row5_x5F_1_1_">
			<ellipse fill="#ED1E79" cx="39.4" cy="116.8" rx="9.2" ry="9"/>
		</g>
		<g id="row3_x5F_4_1_">
			<ellipse fill="#2E3192" cx="104.5" cy="74.8" rx="9.2" ry="9"/>
		</g>
	</g>
</g>
<text transform="matrix(0.5775 0 0 1 160.5713 139.1271)"><tspan x="0" y="0" fill="#808080" stroke="#666666" stroke-width="0.5" stroke-miterlimit="10" font-family="'CenturyGothic'" font-size="100">C</tspan><tspan x="81.3" y="0" fill="#808080" stroke="#666666" stroke-width="0.5" stroke-miterlimit="10" font-family="'CenturyGothic'" font-size="84.0418">atch the </tspan><tspan x="453.7" y="0" fill="#808080" stroke="#666666" stroke-width="0.5" stroke-miterlimit="10" font-family="'CenturyGothic'" font-size="100">C</tspan><tspan x="535" y="0" fill="#808080" stroke="#666666" stroke-width="0.5" stroke-miterlimit="10" font-family="'CenturyGothic'" font-size="84.0418">ircles</tspan></text>
</svg>
